<svg width="1024" height="1024" viewBox="0 0 1024 1024" fill="none" xmlns="http://www.w3.org/2000/svg">
<path d="M636.765 199.87C672.98 178.41 717.955 163.251 759.715 157.155C772.415 155.3 788.445 152.753 794.93 166.945C810.615 201.293 813.41 241.963 815.375 279.225C815.87 289.487 815.11 301.27 814.35 310.853C810.98 384.224 786.675 466.244 744.005 526.785C740.025 532.43 734.07 539.205 730.72 544.895C746.77 585.66 742.425 640.325 719.84 678.035C701.245 714.93 656.94 750.78 620.095 767.885C614.1 770.67 605.76 774.635 599.145 771.96C597.37 771.24 596.055 769.865 595.475 768.025C593.61 762.11 608.66 736.335 611.8 729.545C622.795 705.78 628.835 679.975 619.335 654.575L619.095 653.955C610.815 658.34 594.69 665.235 586.895 656.53C585.17 659.125 583.4 662.055 581.29 664.305C576.945 668.99 572.26 674.3 565.245 674.835C560.38 675.21 557.515 671.265 552.835 670.105L552.315 670.665C551.7 671.315 551.525 671.485 550.855 672.03C547.345 677.205 541.315 685.53 534.97 686.77C527.11 688.3 522.12 683.325 516.17 679.835C512.895 676.765 507.495 673.155 503.73 670.69L501.03 668.645C496.248 665.145 489.907 661.07 484.894 657.835C475.65 667.305 467.482 675.03 456.126 681.975C443.686 687.26 449.146 671.74 450.687 666.15C453.399 660.55 456.043 650.14 459.164 643.39C454.363 640.12 449.184 636.66 444.004 634.055L442.094 633.115L430.574 626.755C425.628 622.27 412.342 617.285 410.35 609.025C408.739 602.345 414.028 591.63 417.301 585.95L417.308 585.65C416.397 584.185 412.818 582.22 411.126 581.13C401.024 574.605 405.574 566.27 409.392 557.295C410.933 553.97 411.901 551.655 414.848 549.315C413.523 548.65 412.337 547.745 411.351 546.635C407.118 541.96 407.5 534.52 408.015 528.665C369.761 536.83 346.279 563.18 324.754 593.2C322.346 596.71 315.222 602.75 311.367 597.695C304.857 589.16 305.011 569.09 305.235 558.775C306.488 515.385 319.586 473.16 343.112 436.677C347.053 430.616 353.446 421.191 358.555 416.299C379.105 392.633 405.881 377.901 437.34 375.192C442.582 374.74 453.691 374.019 458.478 375.957C461.073 371.773 464.309 365.219 466.945 360.63C472.529 351.006 478.47 341.593 484.754 332.41C494.731 318.152 505.63 304.561 517.385 291.727C554.315 250.739 587.985 225.639 636.765 199.87Z" fill="#9CF4D9"/>
<path d="M771.43 302.683C778.64 305.262 786.4 307.19 793.835 309.089L794.65 309.175C803.705 310.174 804.185 311.52 814.35 310.853C810.98 384.224 786.675 466.244 744.005 526.785C740.025 532.43 734.07 539.205 730.72 544.895C746.77 585.66 742.425 640.325 719.84 678.035C701.245 714.93 656.94 750.78 620.095 767.885C614.1 770.67 605.76 774.635 599.145 771.96C597.37 771.24 596.055 769.865 595.475 768.025C593.61 762.11 608.66 736.335 611.8 729.545C622.795 705.78 628.835 679.975 619.335 654.575L619.095 653.955C610.815 658.34 594.69 665.235 586.895 656.53C585.17 659.125 583.4 662.055 581.29 664.305C576.945 668.99 572.26 674.3 565.245 674.835C560.38 675.21 557.515 671.265 552.835 670.105L552.315 670.665C551.7 671.315 551.525 671.485 550.855 672.03C547.345 677.205 541.315 685.53 534.97 686.77C527.11 688.3 522.12 683.325 516.17 679.835C512.895 676.765 507.495 673.155 503.73 670.69L501.03 668.645C496.248 665.145 489.908 661.07 484.895 657.835C490.669 652.055 496.399 646.24 502.085 640.375C506.09 635.86 524.655 613.585 527.54 611.835C530.86 608.74 538.26 598.205 541.055 594.31C561.17 566.27 577.59 533.64 586.535 500.21C586.615 500.37 587.11 501.33 587.115 501.515C587.755 530.155 580.08 567.14 565.035 591.04C569.12 586.695 577.37 582.2 582.74 578.6C589.81 573.755 596.73 568.7 603.485 563.43C640.605 534.08 673.03 499.239 699.635 460.105C702.82 455.35 710.965 442.957 712.995 437.845C722.4 431.726 726.805 423.424 731.245 413.641L733.11 411.618C740.71 399.787 746.815 386.926 752.37 374.026C759.68 353.934 771.535 324.561 771.43 302.683Z" fill="#41C5C1"/>
<path d="M730.72 544.895C746.77 585.66 742.425 640.325 719.84 678.035C701.245 714.93 656.94 750.78 620.095 767.885C614.1 770.67 605.76 774.635 599.145 771.96C597.37 771.24 596.055 769.865 595.475 768.025C593.61 762.11 608.66 736.335 611.8 729.545C622.795 705.78 628.835 679.975 619.335 654.575L619.095 653.955C634.655 644.42 643.93 636.93 657.665 625.245C683.35 603.635 710.8 572.245 730.72 544.895Z" fill="#FB5A40"/>
<path d="M730.72 544.895C746.77 585.66 742.425 640.325 719.84 678.035C719.67 677.685 719.5 677.34 719.33 676.99C721.535 672.59 725.635 665.33 726.91 660.795C727.17 659.885 724.76 649.015 724.38 647.39C723.885 645.27 721.46 638.615 719.245 637.48C715.895 635.77 713.295 632.52 710.34 630.25C706.645 627.41 702.74 624.375 698.995 621.555C692.13 616.39 685.5 612.69 678.765 607.175C674.64 611.37 662.54 624.44 657.665 625.245C683.35 603.635 710.8 572.245 730.72 544.895Z" fill="#FEAB2E"/>
<path d="M724.035 577.88C734.525 578.555 733.75 595.73 732.58 603.105C731.73 608.46 730.42 612 726.925 616.185L726.265 616.36C723.33 615.745 721.335 613.725 720.52 610.95C717.865 601.96 715.825 584.1 724.035 577.88Z" fill="#FEE591"/>
<path d="M717.8 622.5C727.9 622.68 726.51 630.555 720.145 635.69C713.815 637.725 711.03 626.795 717.8 622.5Z" fill="#FFC576"/>
<path d="M715.22 639.66C720.83 640.485 721.2 643.635 720.475 648.915C718.92 660.33 714.62 667.185 708.525 676.54C697.42 693.59 681.64 702.745 665.285 714.005C664.095 714.925 664.055 715.175 662.615 715.305C663 714.505 670.57 708.07 672.08 706.55C679.335 699.235 685.95 691.32 691.86 682.88C697.14 675.39 700.62 669.85 704.815 661.63C707.77 655.855 711.535 644 715.22 639.66Z" fill="#FE9533"/>
<path d="M667.43 721.555L667.67 722.575C661.785 730.29 654.025 737.82 644.69 741.2C644.31 740.265 643.685 739.32 644.41 738.415C648.935 732.755 660.605 722.675 667.43 721.555Z" fill="#FE6E5D"/>
<path d="M502.085 640.375C506.09 635.86 524.655 613.585 527.54 611.835C528.765 613.37 539.935 618.985 542.595 620.545C549.77 624.745 583.91 651.38 586.895 656.53C585.17 659.125 583.4 662.055 581.29 664.305C576.945 668.99 572.26 674.3 565.245 674.835C560.38 675.21 557.515 671.265 552.835 670.105L552.315 670.665C551.7 671.315 551.525 671.485 550.855 672.03C547.345 677.205 541.315 685.53 534.97 686.77C527.11 688.3 522.12 683.325 516.17 679.835C512.895 676.765 507.495 673.155 503.73 670.69L501.03 668.645C496.248 665.145 489.908 661.07 484.895 657.835C490.669 652.055 496.399 646.24 502.085 640.375Z" fill="#3734A8"/>
<path d="M502.085 640.375C512.005 641.99 535.9 656.9 543.93 663.65C546.29 666.505 549.295 667.175 551.11 669.84C551.08 670.115 550.835 671.825 550.855 672.03C547.345 677.205 541.315 685.53 534.97 686.77C527.11 688.3 522.12 683.325 516.17 679.835C512.895 676.765 507.495 673.155 503.73 670.69L501.03 668.645C496.248 665.145 489.908 661.07 484.895 657.835C490.669 652.055 496.399 646.24 502.085 640.375Z" fill="#2F2898"/>
<path d="M502.085 640.375C506.09 635.86 524.655 613.585 527.54 611.835C528.765 613.37 539.935 618.985 542.595 620.545C549.77 624.745 583.91 651.38 586.895 656.53C585.17 659.125 583.4 662.055 581.29 664.305C579.445 661.965 575.43 657.435 573.215 655.74C564.785 649.29 542.93 626.08 532.485 626.63C528.04 629.78 522.77 635.2 519.99 639.965C530.73 646.65 547.81 660.1 558.045 668.865C558.675 669.405 558.32 669.955 558.13 671.035C556.495 670.995 546.515 665.045 543.93 663.65C535.9 656.9 512.005 641.99 502.085 640.375Z" fill="#191870"/>
<path d="M771.43 302.683C778.64 305.262 786.4 307.19 793.835 309.089C789.75 309.715 781.275 306.186 779.34 306.657C782.545 308.538 785.75 310.045 786.48 313.962C786.665 314.952 787.735 316.464 787.81 317.427C789.685 341.44 770.285 361.066 756.335 378.336C755.105 379.856 753.655 380.201 752.47 381.805L751.445 381.549C752.065 378.727 753.51 375.939 752.37 374.026C759.68 353.934 771.535 324.561 771.43 302.683Z" fill="#6ADEC9"/>
<path d="M773.055 430.251C783.37 429.611 773.425 448.976 771.72 453.09C760.005 481.314 743.86 507.64 723.31 530.3C720.685 533.19 715.395 538.78 711.48 539.01C707.59 535.68 702.985 532.075 706.85 526.765C713.28 517.945 721.11 509.945 727.685 501.135C738.38 486.698 748.35 471.737 757.555 456.311C761.51 449.79 768.57 434.883 773.055 430.251Z" fill="#4AC9CB"/>
<path d="M654.74 584.435C656.51 584.645 658.33 586.05 659.09 587.615C661.69 592.955 651.325 599.435 647.93 602.215C633.635 613.915 618.1 623.455 601.28 631.065C599.685 629.725 598.285 628.675 596.605 627.44C594.84 626.21 590.15 623.13 589.265 621.475C590.46 622.005 589.88 621.765 591.005 622.2C591.925 621.825 592.35 621.69 593.275 621.38C608.46 616.245 623.39 606.985 636.125 597.36C641.39 593.38 649.315 587.195 654.74 584.435Z" fill="#4AC9CB"/>
<path d="M692.935 539.52C697.295 538.955 699.42 541.045 702.56 543.645C700.98 553.67 695.48 558.325 688.59 565.1C684.285 569.33 679.935 573.495 675.51 577.6C668.735 580.215 666.195 570.545 666.875 569.055C670.145 561.83 687.005 543.22 692.935 539.52Z" fill="#4AC9CB"/>
<path d="M779.835 394.233C787.985 395.372 784.03 403.95 780.175 407.58C771.895 407.91 776.235 397.916 779.835 394.233Z" fill="#6ADEC9"/>
<path d="M784.96 376.78C791.205 379.731 788.44 383.756 785.325 387.487C784.015 387.929 784 387.826 782.595 387.691C779.565 384.752 782.955 379.491 784.96 376.78Z" fill="#6ADEC9"/>
<path d="M793.235 346.184C793.825 346.438 794.13 346.731 794.665 347.124C796.555 351.295 795.605 355.094 791.895 357.812C786.245 356.818 791.645 348.603 793.235 346.184Z" fill="#6ADEC9"/>
<path d="M636.765 199.87C672.98 178.41 717.955 163.251 759.715 157.155C772.415 155.3 788.445 152.753 794.93 166.945C810.615 201.293 813.41 241.963 815.375 279.225C815.87 289.487 815.11 301.27 814.35 310.853C804.185 311.52 803.705 310.174 794.65 309.175L793.835 309.089C786.4 307.19 778.64 305.262 771.43 302.683C752.375 295.896 720.67 280.433 704.645 268.285C703.005 267.512 697.755 263.664 696.155 262.512C681.54 251.98 638.035 217.79 637.46 200.136L636.765 199.87Z" fill="#FC7137"/>
<path d="M637.46 200.136C638.765 200.361 638.465 200.027 639.025 200.739C643.98 207.054 650.2 213.008 655.515 218.791C661.635 225.449 668.025 231.66 674.41 237.557C677.56 240.469 702.79 260.764 702.98 261.385C701.055 261.136 696.6 256.923 694.74 255.528C685.285 248.436 676.13 240.739 667.6 232.861C663.025 228.637 644.64 207.893 641.655 206.061L641.105 206.508C641.26 215.764 676.06 246.22 684.87 252.975C690.465 257.266 699.525 263.478 705.525 268.029L704.645 268.285C703.005 267.512 697.755 263.664 696.155 262.512C681.54 251.98 638.035 217.791 637.46 200.136Z" fill="#FB5A40"/>
<path d="M664.11 193.444C687.655 179.689 737.82 162.039 767.485 161.671C768.44 161.659 769.445 162.734 769.98 163.531C769.39 165.759 766.835 167.811 764.79 168.76C744.18 178.34 722.285 185.775 700.97 193.625C689.675 197.783 677.77 202.432 666.1 205.072C662.195 205.933 658.01 207.514 654.615 204.925C652.15 199.339 660.02 195.411 664.11 193.444Z" fill="#FFC576"/>
<path d="M666.1 205.072C662.195 205.934 658.01 207.514 654.615 204.925C652.15 199.34 660.02 195.412 664.11 193.445C664.455 195.549 665.695 203.481 666.1 205.072Z" fill="#FEE591"/>
<path d="M792.255 279.897C795.775 278.447 799.805 280.15 801.22 283.687C802.635 287.224 800.895 291.236 797.345 292.616C793.84 293.977 789.9 292.264 788.5 288.776C787.105 285.289 788.78 281.328 792.255 279.897Z" fill="#FFC576"/>
<path d="M742.32 260.709C744.685 260.237 747.12 261.075 748.69 262.902C750.265 264.729 750.73 267.262 749.91 269.528C749.09 271.795 747.11 273.443 744.735 273.842C741.135 274.445 737.72 272.051 737.06 268.464C736.405 264.876 738.745 261.424 742.32 260.709Z" fill="#FED349"/>
<path d="M720.85 248.855C724.39 247.96 727.98 250.12 728.85 253.666C729.725 257.212 727.54 260.788 723.99 261.637C720.47 262.477 716.935 260.32 716.07 256.806C715.205 253.293 717.34 249.741 720.85 248.855Z" fill="#FED349"/>
<path d="M766.515 272.312C769.925 271.36 773.475 273.317 774.49 276.712C775.505 280.107 773.615 283.69 770.24 284.769C768 285.485 765.545 284.935 763.825 283.331C762.105 281.728 761.385 279.32 761.945 277.035C762.5 274.75 764.25 272.944 766.515 272.312Z" fill="#FED349"/>
<path d="M697.795 232.213C699.895 231.222 702.375 231.484 704.22 232.891C706.07 234.298 706.98 236.617 706.58 238.905C706.185 241.194 704.545 243.07 702.33 243.772C699.21 244.761 695.855 243.162 694.66 240.113C693.465 237.064 694.835 233.61 697.795 232.213Z" fill="#FED349"/>
<path d="M678.27 213.186C680.425 212.679 682.685 213.379 684.175 215.016C685.665 216.653 686.15 218.967 685.44 221.064C684.735 223.161 682.945 224.71 680.77 225.111C677.515 225.709 674.38 223.604 673.7 220.367C673.025 217.13 675.05 213.944 678.27 213.186Z" fill="#FED349"/>
<path d="M358.555 416.299C379.105 392.634 405.881 377.901 437.34 375.192C442.582 374.74 453.691 374.019 458.478 375.957C446.564 400.16 436.438 425.203 428.182 450.885C425.229 459.804 422.85 468.901 419.916 477.64C417.556 487.211 414.591 497.324 412.716 506.9C411.005 514.125 409.439 521.38 408.015 528.665C369.761 536.83 346.279 563.18 324.754 593.2C322.346 596.71 315.222 602.75 311.367 597.695C304.857 589.16 305.011 569.09 305.235 558.775C306.488 515.385 319.586 473.16 343.112 436.677C347.053 430.616 353.446 421.191 358.555 416.299Z" fill="#FB5A40"/>
<path d="M358.555 416.299C379.105 392.634 405.881 377.901 437.341 375.192C442.582 374.74 453.692 374.019 458.478 375.957C446.564 400.16 436.439 425.203 428.183 450.885C425.229 459.804 422.851 468.901 419.917 477.64C418.908 474.267 425.188 459.862 425.843 454.498L425.38 454.372C424.004 456.48 424.078 456.677 421.746 456.603C420.273 455.508 416.965 452.486 415.632 451.862C406.635 447.652 398.143 443.114 390.513 436.65C388.041 434.556 386.698 432.21 384.582 429.893C382.069 427.142 379.476 426.953 378.308 422.915C375.704 427.196 371.065 436.848 366.087 438.912C363.718 440.476 360.048 446.857 354.547 447.721C348.93 445.451 354.987 435.316 356.766 432.022C356.612 427.401 367.499 419.711 370.327 416.285C372.653 413.467 369.046 409.747 368.633 407.393C366.078 409.456 361.191 415.593 358.555 416.299Z" fill="#FE9533"/>
<path d="M356.766 432.022L357.229 431.543C362.748 425.758 366.584 415.858 376.264 419.353C379.739 424.977 368.901 434.627 366.087 438.912C363.718 440.476 360.048 446.857 354.547 447.721C348.93 445.451 354.987 435.317 356.766 432.022Z" fill="#FFBF84"/>
<path d="M423.097 385.168C426.194 384.754 433.174 384.723 432.842 389.198C431.981 390.735 430.138 392.791 428.592 393.495C412.73 400.709 401.234 407.645 387.276 418.164C380.21 421.636 376.201 411.55 380.201 407.136C389.345 397.045 409.862 386.934 423.097 385.168Z" fill="#FFD689"/>
<path d="M347.823 460.944L348.106 461.294C348.59 465.289 333.646 490.907 332.172 502.37C326.949 493.627 340.936 467.481 347.823 460.944Z" fill="#FE6E5D"/>
<path d="M578.375 469.384C592.485 469.086 586.565 492.988 586.535 500.21C577.59 533.64 561.17 566.27 541.055 594.31C538.26 598.205 530.86 608.74 527.54 611.835C524.655 613.585 506.09 635.86 502.085 640.375C496.399 646.24 490.669 652.055 484.895 657.835C475.651 667.305 467.483 675.03 456.127 681.975C443.686 687.26 449.146 671.74 450.687 666.15C453.4 660.55 456.043 650.14 459.164 643.39C461.116 639.965 467.041 622.755 469.147 617.475L470.631 613.685C473.74 605.725 476.955 597.81 480.275 589.94C481.31 587.665 481.986 586.005 482.822 583.65C486.284 575.215 490.031 567.255 493.931 559.01C496.103 555.73 500.335 545.765 502.805 541.52C512.015 525.725 523.98 507.455 537.405 495.045C537.19 497.513 535.82 497.841 535.95 500.125C535.96 500.305 536.835 502.055 536.985 502.65C542.085 497.324 557.575 478.467 563.24 491.715L564.15 491.34C568.8 492.282 568.575 491.689 572.82 490.248C575.3 486.332 581.98 476.646 582.755 472.569C581.88 471.066 580.09 470.404 578.375 469.384Z" fill="#E83F3C"/>
<path d="M536.985 502.65C542.085 497.324 557.575 478.467 563.24 491.715L564.15 491.34C568.8 492.282 568.575 491.689 572.82 490.248C558.74 513.925 543.52 536.715 528.75 559.945C511.765 586.675 495.212 613.73 478.051 640.335C475.219 644.725 451.274 679.675 451.004 680.855C452.126 682.805 453.966 682.125 456.127 681.975C443.686 687.26 449.146 671.74 450.687 666.15C453.4 660.55 456.043 650.14 459.164 643.39C461.116 639.965 467.041 622.755 469.147 617.475L470.631 613.685C473.74 605.725 476.955 597.81 480.275 589.94C481.31 587.665 481.986 586.005 482.822 583.65C486.284 575.215 490.031 567.255 493.931 559.01C496.103 555.73 500.335 545.765 502.805 541.52C512.015 525.725 523.98 507.455 537.405 495.045C537.19 497.513 535.82 497.842 535.95 500.125C535.96 500.305 536.835 502.055 536.985 502.65Z" fill="#FF7E37"/>
<path d="M536.985 502.65C542.085 497.324 557.575 478.467 563.24 491.715C558.225 498.102 529.645 534.88 521.185 529.885C517.985 524.105 532.895 507.32 536.985 502.65Z" fill="#FEE591"/>
<path d="M517.655 534.865C520.295 535.515 521.1 536.145 521.575 538.77C520.635 542.6 515.75 546.8 512.82 549.755C503.92 547.54 513.455 537.2 517.655 534.865Z" fill="#FFC576"/>
<path d="M651.195 423.613C649.285 420.198 648.085 417.891 646.83 414.154C643.005 402.955 643.9 390.683 649.3 380.155C654.495 370.028 663.51 362.388 674.35 358.927C688.555 354.385 700.25 356.653 713.1 363.34C724.45 371.392 728.79 378.513 732.18 391.974L733.1 391.966C733.895 396.597 734.255 400.912 733.865 405.608C733.665 407.989 732.9 409.358 733.11 411.618L731.245 413.641C726.805 423.424 722.4 431.726 712.995 437.845C711.06 438.582 707.145 440.004 705.69 441.282C686.15 448.174 673.91 445.745 657.81 432.316C655.3 429.456 653.405 426.717 651.195 423.613Z" fill="#FEFEFE"/>
<path d="M732.18 391.974L733.1 391.966C733.895 396.597 734.255 400.912 733.865 405.608C733.665 407.989 732.9 409.358 733.11 411.618L731.245 413.641C732.835 404.242 733.385 401.241 732.18 391.974Z" fill="#6ADEC9"/>
<path d="M681.115 370.267C684.67 370.051 687.66 369.875 691.2 370.194C716.925 372.513 727.1 403.376 709.715 421.655C704.06 427.598 697.105 430.998 688.795 431.14C680.305 431.206 672.14 427.868 666.125 421.871C660.29 416.159 656.995 408.345 656.975 400.18C656.94 389.745 661.785 381.881 669.515 375.383C673.89 372.614 676.16 371.704 681.115 370.267Z" fill="#191C7F"/>
<path d="M669.515 375.383C673.89 372.614 676.16 371.704 681.115 370.267L680.675 372.039C684.135 371.696 689.905 371.522 692.39 374.21C704.68 387.506 683.485 402.093 672.335 390.306C668.22 385.956 669.91 380.176 673.26 375.88L671.335 376.577C669.875 376.223 670.47 376.594 669.515 375.383Z" fill="#FEFEFE"/>
<path d="M669.515 375.383C673.89 372.614 676.16 371.704 681.115 370.267L680.675 372.039C677.39 373.012 675.945 373.709 673.26 375.88L671.335 376.577C669.875 376.223 670.47 376.594 669.515 375.383Z" fill="#191870"/>
<path d="M693.82 412.537C697.225 412.281 700.195 414.83 700.455 418.233C700.72 421.637 698.175 424.611 694.77 424.88C691.36 425.151 688.375 422.599 688.11 419.185C687.85 415.771 690.405 412.792 693.82 412.537Z" fill="#FEFEFE"/>
<path d="M575.44 306.947C588.515 297.295 605.87 295.696 620.49 302.796C640.4 312.465 649.935 335.492 642.695 356.408C635.455 377.323 613.72 389.523 592.095 384.813C587.56 383.825 583.21 382.122 579.215 379.767C568.27 373.319 560.67 362.429 558.395 349.931C555.415 333.525 562.025 316.85 575.44 306.947Z" fill="#FEFEFE"/>
<path d="M584.73 316.556C594.255 310.665 604.29 309.388 614.595 314.02C630.885 322.761 637.285 342.011 628.55 358.345C624.78 365.329 618.365 370.508 610.745 372.724C602.785 375.089 593.585 373.904 586.4 369.776C579.185 365.691 573.94 358.838 571.89 350.802C568.405 337.194 573.365 324.557 584.73 316.556Z" fill="#191B7B"/>
<path d="M584.73 316.556C594.255 310.665 604.29 309.388 614.595 314.02C612.795 313.734 611.64 313.362 609.92 313.922C609.965 316.349 611.65 315.955 611.845 318.533C619.19 344.131 578.065 342.596 587.295 318.144C586.44 317.422 585.71 317.099 584.73 316.556Z" fill="#FEFEFE"/>
<path d="M584.73 316.556C594.255 310.665 604.29 309.388 614.595 314.02C612.795 313.734 611.64 313.362 609.92 313.922C609.965 316.349 611.65 315.955 611.845 318.533C605.07 310.613 594.485 310.97 587.295 318.144C586.44 317.422 585.71 317.099 584.73 316.556Z" fill="#191870"/>
<path d="M609.345 356.219C612.25 355.561 615.135 357.391 615.78 360.301C616.425 363.21 614.58 366.089 611.67 366.72C608.775 367.347 605.92 365.518 605.28 362.627C604.64 359.737 606.455 356.872 609.345 356.219Z" fill="#FEFEFE"/>
<path d="M620.49 302.796C623.715 302.152 624.9 303.594 627.51 303.207C634.165 301.789 639.905 301.955 646.63 301.999C648.795 302.195 650.92 302.373 653.075 302.654C662.84 303.086 671.365 307.063 679.855 311.362L680.37 311.786C683.805 314.588 688.305 317.084 691.57 319.992C702.445 329.687 711.72 348.851 713.1 363.34C700.25 356.653 688.555 354.385 674.35 358.927C663.51 362.388 654.495 370.028 649.3 380.155C643.9 390.683 643.005 402.955 646.83 414.154C648.085 417.891 649.285 420.198 651.195 423.613C651.325 425.267 651.52 424.511 650.48 425.927C648.025 427.321 646.09 426.575 643.53 426.949C622.31 430.053 589.4 408.592 588.79 385.543L589.36 384.974L591.22 385.377L592.095 384.813C613.72 389.523 635.455 377.323 642.695 356.408C649.935 335.492 640.4 312.465 620.49 302.796Z" fill="#3D3DB6"/>
<path d="M646.63 301.999C648.795 302.195 650.92 302.373 653.075 302.654C652.71 302.869 651.89 303.384 651.5 303.324C647.635 302.736 629.955 303.746 627.51 303.207C634.165 301.789 639.905 301.955 646.63 301.999Z" fill="#191870"/>
<path d="M679.34 320.52C688.71 323.175 691.37 336.925 680.2 338.235C675.95 337.46 672.26 335.874 671.025 331.293C670.455 329.149 670.835 326.866 672.06 325.018C673.9 322.261 676.215 321.086 679.34 320.52Z" fill="#4649C9"/>
<path d="M414.848 549.315C430.557 550.565 468.961 574.315 482.822 583.65C481.986 586.005 481.31 587.665 480.275 589.94C476.955 597.81 473.74 605.725 470.631 613.685L469.147 617.475C467.041 622.755 461.116 639.965 459.164 643.39C454.364 640.12 449.184 636.66 444.004 634.055L442.094 633.115L430.574 626.755C425.629 622.27 412.343 617.285 410.351 609.025C408.74 602.345 414.028 591.63 417.301 585.95L417.308 585.65C416.397 584.185 412.819 582.22 411.126 581.13C401.025 574.605 405.574 566.27 409.392 557.295C410.933 553.97 411.902 551.655 414.848 549.315Z" fill="#3734A8"/>
<path d="M417.301 585.95C420.688 589.785 433.815 594.32 439.913 598.185C447.197 602.805 462.278 614.41 469.147 617.475C467.041 622.755 461.115 639.965 459.164 643.39C454.363 640.12 449.184 636.66 444.004 634.055L442.094 633.115L430.574 626.755C425.628 622.27 412.342 617.285 410.35 609.025C408.739 602.345 414.028 591.63 417.301 585.95Z" fill="#342C93"/>
<path d="M427.513 596.11C439.962 597.225 460.543 613.6 441.707 621.03C437.539 621.34 421.561 610.55 420.516 605.665C419.403 600.46 423.165 597.215 427.513 596.11Z" fill="#5A55C9"/>
<path d="M414.848 549.315C430.557 550.565 468.961 574.315 482.822 583.65C481.986 586.005 481.309 587.665 480.275 589.94C477.53 587.53 469.388 582.21 466.168 580.41C452.979 573.05 424.495 553.825 409.392 557.295C410.933 553.97 411.901 551.655 414.848 549.315Z" fill="#191870"/>
<path d="M411.126 581.13C414.269 580.32 420.097 579.555 422.027 581.815C426.958 587.585 433.361 589.795 439.693 593.725C445.999 597.635 452.043 601.96 458.188 606.115C462.265 608.805 464.852 610.415 468.483 613.765C468.993 611.035 468.043 612.005 467.89 609.94C469.586 611.54 469.663 611.6 470.631 613.685L469.147 617.475C462.278 614.41 447.197 602.805 439.913 598.185C433.815 594.32 420.688 589.785 417.301 585.95L417.308 585.65C416.397 584.185 412.819 582.22 411.126 581.13Z" fill="#191870"/>
<path d="M705.69 441.282C704.85 443.681 697.12 445.561 694.68 446.721C624.885 479.914 542.725 432.141 557.72 350.375L558.395 349.931C560.67 362.429 568.27 373.319 579.215 379.767C583.21 382.122 587.56 383.825 592.095 384.813L591.22 385.377L589.36 384.974L588.79 385.543C589.4 408.592 622.31 430.053 643.53 426.949C646.09 426.575 648.025 427.321 650.48 425.927C651.52 424.511 651.325 425.267 651.195 423.613C653.405 426.717 655.3 429.456 657.81 432.316C673.91 445.745 686.15 448.174 705.69 441.282Z" fill="#3D8CF8"/>
<path d="M579.215 379.767C583.21 382.122 587.56 383.825 592.095 384.813L591.22 385.377L589.36 384.974L588.79 385.543C589.4 408.592 622.31 430.053 643.53 426.949C646.09 426.575 648.025 427.321 650.48 425.927C651.52 424.511 651.325 425.267 651.195 423.613C653.405 426.717 655.3 429.456 657.81 432.316C653.95 431.665 645.64 432.949 640.105 432.329C617.21 430.058 596.22 418.413 586.3 396.996C584.315 392.718 581.91 382.713 579.215 379.767Z" fill="#3734A8"/>
<path d="M626.805 281.695C633.92 280.101 644.15 280.399 651.51 280.637C700.76 284.072 737.85 329.937 734.2 378.422C733.94 381.871 732.84 388.848 733.1 391.966L732.18 391.974C728.79 378.513 724.45 371.392 713.1 363.34C711.72 348.851 702.445 329.687 691.57 319.992C688.305 317.084 683.805 314.588 680.37 311.786L679.855 311.362C671.365 307.063 662.84 303.087 653.075 302.654C650.92 302.373 648.795 302.195 646.63 301.999C639.905 301.955 634.165 301.789 627.51 303.207C624.9 303.594 623.715 302.152 620.49 302.796C605.87 295.696 588.515 297.295 575.44 306.947C575.83 305.489 579.225 302.949 580.495 302.027C592.455 293.359 611.95 282.912 626.805 281.695Z" fill="#3E8FF7"/>
<path d="M653.815 286.369C662.88 284.275 684.03 293.629 691.115 299.044C688.065 301.688 679.36 306.629 677.715 309.181L679.69 310.451L679.855 311.362C671.365 307.063 662.84 303.086 653.075 302.654C650.92 302.373 648.795 302.195 646.63 301.999L647.075 301.63C645.655 298.028 647.11 298.596 644.415 296.899C650.52 296.328 658.35 294.318 653.815 286.369Z" fill="#3D8CF8"/>
<path d="M624.385 297.397C623.375 296.813 622.4 296.164 621.475 295.453C619.94 294.251 619.575 293.511 619.37 291.608C621.93 283.671 647.14 284.298 653.815 286.368C658.35 294.317 650.52 296.328 644.415 296.899C638.465 297.205 629.99 297.965 624.385 297.397Z" fill="#BAE4FE"/>
<path d="M626.805 281.695C633.92 280.101 644.15 280.399 651.51 280.637L651.695 281.294C649.85 282.192 628.995 282.326 626.805 281.695Z" fill="#3D8CF8"/>
<path d="M412.716 506.9C414.337 510.255 410.596 516.66 411.356 519.72C417.009 521.57 427.069 518.67 432.07 521.8C449.179 532.515 466.937 542.15 483.74 553.37C486.724 555.36 490.514 558.05 493.931 559.01C490.031 567.255 486.284 575.215 482.822 583.65C468.962 574.315 430.557 550.565 414.848 549.315C413.524 548.65 412.337 547.745 411.352 546.635C407.118 541.96 407.5 534.52 408.015 528.665C409.439 521.38 411.006 514.125 412.716 506.9Z" fill="#4AC9CB"/>
<path d="M537.405 495.045C543.43 486.168 567.265 470.349 578.375 469.384C580.09 470.404 581.88 471.067 582.755 472.569C581.98 476.647 575.3 486.332 572.82 490.248C568.575 491.689 568.8 492.282 564.15 491.34L563.24 491.715C557.575 478.467 542.085 497.324 536.985 502.65C536.835 502.055 535.96 500.305 535.95 500.125C535.82 497.842 537.19 497.513 537.405 495.045Z" fill="#FEAB2E"/>
<path d="M617.7 221.559C622.71 221.117 629.74 222.524 627.83 229.792C627.215 232.147 624.01 235.082 621.98 236.616C610.33 245.406 597.915 253.29 586.04 261.788C580.825 265.442 567.71 275.877 563.115 278.008C559.345 279.168 555.51 277.643 553.41 274.34C553.315 273.615 553.04 272.633 553.39 272.148C562.51 259.575 606.035 225.71 617.7 221.559Z" fill="#DCFDF4"/>
<path d="M543.31 282.664C561.125 282.099 549.56 300.361 542.265 306.232C538.465 309.294 537.67 310.604 532.855 312.766C527.645 313.885 522.51 312.898 524.305 306.315C526.57 298.019 536.34 287.287 543.31 282.664Z" fill="#DCFDF4"/>
<path d="M515.265 315.769C524 321.923 510.275 345.958 504.03 350.96C501.42 353.055 500.435 353.033 497.192 352.815C488.953 348.103 497.11 337.974 500.71 332.734C504.795 326.79 509.67 320.343 515.265 315.769Z" fill="#DCFDF4"/>
<path d="M430.574 626.755L442.094 633.115L444.004 634.055C449.184 636.66 454.364 640.12 459.164 643.39C456.043 650.14 453.4 660.55 450.687 666.15C449.146 671.74 443.686 687.26 456.126 681.975C467.482 675.03 475.651 667.305 484.895 657.835C489.908 661.07 496.248 665.145 501.03 668.645L503.73 670.69C507.495 673.155 512.895 676.765 516.17 679.835C516.64 694.705 509.205 712.9 501.68 725.23C482.544 756.605 448.323 773.24 415.777 787.31C398.9 794.605 382.345 803.83 366.023 812.43C363.836 813.58 359.518 816.29 357.286 816.85L356.915 816.16L357.288 815.32C359.231 807.41 362.55 798.37 365.272 790.615C372.951 765.11 372.529 751.19 370.243 725.585C368.78 709.2 375.902 681.835 383.106 667.425C393.382 646.87 408.616 633.86 430.574 626.755Z" fill="#FE9533"/>
<path d="M444.004 634.055C449.184 636.66 454.363 640.12 459.164 643.39C456.043 650.14 453.4 660.55 450.687 666.15C449.146 671.74 443.686 687.26 456.126 681.975C467.482 675.03 475.65 667.305 484.894 657.835C489.907 661.07 496.248 665.145 501.03 668.645C500.095 670.96 496.741 677.225 495.449 679.52C484.921 698.215 462.414 712.655 442.466 719.355C439.212 720.45 432.957 721.7 429.876 719.92C425.614 717.145 422.172 709.385 421.216 704.44C417.241 683.875 423.447 662.765 434.278 645.575C437.817 640.575 439.983 638.51 444.004 634.055Z" fill="#FFF9B1"/>
<path d="M444.004 634.055C449.184 636.66 454.364 640.12 459.164 643.39C456.043 650.14 453.4 660.55 450.687 666.15L449.102 667.265C448.82 668.065 448.701 668.84 448.608 669.685C447.906 669.275 445.014 668.275 444.832 667.97C441.128 661.735 440.541 653.58 437.125 647.14C437.075 647.045 434.427 645.655 434.279 645.575C437.818 640.575 439.983 638.51 444.004 634.055Z" fill="#FEE591"/>
<path d="M442.094 633.115L444.004 634.055C439.983 638.51 437.817 640.575 434.278 645.575C423.447 662.765 417.241 683.875 421.216 704.44C422.172 709.385 425.614 717.145 429.876 719.92C432.957 721.7 439.212 720.45 442.466 719.355C462.414 712.655 484.921 698.215 495.449 679.52C496.741 677.225 500.095 670.96 501.03 668.645L503.73 670.69C502.61 673.025 502.475 679.21 501.615 682.65C493.193 716.475 459.203 737.19 428.23 747.675C425.35 748.65 416.059 751.905 414.259 748.4C412.744 745.445 410.595 738.66 411.375 735.34L411.935 735.195L413.04 737.31C414.556 736.015 414.692 735.56 415.709 733.785C414.094 733.735 413.694 733.605 412.143 733.26C409.932 731.665 408.601 726.57 407.86 723.83C402.073 702.4 408.348 675.585 418.669 656.545C422.518 649.445 434.106 635.27 442.094 633.115Z" fill="#FED349"/>
<path d="M417.824 708.335C419.418 710.235 425.786 724.88 425.314 726.995C422.761 730.335 416.774 733.75 412.542 731.66C410.669 730.735 410.164 727.295 409.714 725.405L409.944 725.25C410.775 728.095 411.372 731.735 414.79 732.06C417.041 730.935 421.263 728.715 422.728 726.725C418.933 723.88 418.786 721.61 420.409 717.26C421.278 714.925 417.74 711.86 417.824 708.335Z" fill="#FEE591"/>
<path d="M365.272 790.615C367.171 789.4 366.329 789.405 367.935 789.72C369.877 789.135 377.169 786.46 378.018 784.765C379.12 782.575 377.88 781.055 381.266 779.475C384.859 779.585 388.564 782.745 391.049 785.2C383.112 792.94 373.899 796.105 368.022 806.825C366.255 810.05 364.543 812.085 360.757 811.67C358.216 813.085 358.994 814.415 357.288 815.32C359.231 807.41 362.55 798.37 365.272 790.615Z" fill="#FFC576"/>
<path d="M397.364 745.66C403.484 746.845 406.944 750.915 401.733 756.27C394.063 758.06 392.93 750.24 397.364 745.66Z" fill="#FED349"/>
<path d="M393.164 693.74C401.208 694.07 399.589 700.66 395.577 705.105C389.469 705.955 389.5 697.87 393.164 693.74Z" fill="#FED349"/>
<path d="M516.955 729.02C519.355 728.39 521.91 729.125 523.61 730.93C525.305 732.74 525.88 735.33 525.1 737.685C524.325 740.045 522.32 741.785 519.875 742.225C516.3 742.87 512.855 740.575 512.07 737.025C511.285 733.48 513.445 729.945 516.955 729.02Z" fill="#FED349"/>
<path d="M339.18 691.21C341.487 690.41 344.049 690.925 345.868 692.555C347.687 694.185 348.477 696.675 347.93 699.055C347.383 701.44 345.586 703.335 343.238 704.01C339.742 705.01 336.083 703.05 334.983 699.585C333.884 696.115 335.744 692.405 339.18 691.21Z" fill="#FED349"/>
<path d="M379.035 631.235C382.473 630.34 385.995 632.355 386.974 635.77C387.953 639.18 386.031 642.755 382.642 643.82C380.373 644.53 377.895 643.96 376.17 642.32C374.444 640.68 373.744 638.235 374.339 635.935C374.934 633.63 376.732 631.83 379.035 631.235Z" fill="#FED349"/>
<path d="M334.087 778.18C336.166 777.655 338.365 778.295 339.84 779.85C341.315 781.405 341.836 783.635 341.203 785.685C340.571 787.735 338.883 789.28 336.788 789.735C333.622 790.42 330.493 788.44 329.756 785.285C329.019 782.13 330.946 778.97 334.087 778.18Z" fill="#FED349"/>
<path d="M431.01 794.845C439.835 795.57 442.272 801.035 434.48 806.51C430.919 806.655 426.977 804.32 427.255 800.41C427.461 797.525 428.977 796.575 431.01 794.845Z" fill="#FED349"/>
<path d="M491.038 759.345C493.842 758.67 496.687 760.3 497.526 763.06C498.364 765.82 496.907 768.755 494.2 769.755C492.303 770.455 490.173 770.045 488.669 768.69C487.165 767.34 486.535 765.265 487.032 763.305C487.529 761.345 489.071 759.82 491.038 759.345Z" fill="#FED349"/>
<path d="M351.382 652.925C358.329 652.85 363.295 657.375 356.454 662.91C349.76 665.02 345.8 658.295 351.382 652.925Z" fill="#FED349"/>
<path d="M391.956 810.835C398.714 810.85 404.503 814.375 396.967 820.115C390.321 820.69 386.213 816.3 391.956 810.835Z" fill="#FED349"/>
<path d="M341.222 723.12C342.962 722.26 345.039 722.465 346.578 723.65C348.117 724.83 348.849 726.785 348.465 728.69C348.081 730.59 346.648 732.11 344.771 732.6C342.246 733.265 339.629 731.91 338.714 729.465C337.799 727.02 338.883 724.28 341.222 723.12Z" fill="#FED349"/>
<path d="M315.655 822.9C317.274 821.965 319.284 822.02 320.846 823.05C322.409 824.08 323.257 825.9 323.038 827.76C322.818 829.615 321.569 831.19 319.81 831.825C317.402 832.7 314.728 831.585 313.648 829.265C312.567 826.945 313.438 824.18 315.655 822.9Z" fill="#FED349"/>
<path d="M335.874 809.68C338.15 808.9 340.625 810.115 341.401 812.395C342.178 814.67 340.961 817.145 338.683 817.92C336.408 818.695 333.936 817.475 333.161 815.205C332.385 812.93 333.599 810.455 335.874 809.68Z" fill="#FED349"/>
<path d="M360.972 674.235C363.242 673.67 365.547 675.02 366.169 677.275C366.79 679.53 365.501 681.87 363.263 682.545C361.764 683 360.136 682.605 359.011 681.515C357.886 680.425 357.441 678.81 357.849 677.3C358.256 675.785 359.452 674.615 360.972 674.235Z" fill="#FED349"/>
<path d="M395.172 621.305C397.046 620.605 399.132 621.54 399.857 623.405C400.581 625.27 399.675 627.37 397.822 628.12C396.6 628.615 395.205 628.415 394.172 627.595C393.14 626.775 392.629 625.46 392.836 624.155C393.043 622.855 393.936 621.765 395.172 621.305Z" fill="#FFC576"/>
<path d="M462.271 780.95C465.083 780.89 467.578 780.825 468.11 784.14C467.579 786.005 467.038 786.355 465.712 787.74C460.994 787.975 458.61 785.045 462.271 780.95Z" fill="#FED349"/>
<path d="M370.181 653.21C371.917 652.46 373.936 653.195 374.783 654.885C375.63 656.575 375.01 658.635 373.371 659.575C372.224 660.235 370.807 660.205 369.689 659.5C368.571 658.795 367.935 657.525 368.039 656.205C368.142 654.89 368.966 653.735 370.181 653.21Z" fill="#FED349"/>
<path d="M528.425 696.855C531.37 697.16 532.995 697.86 533.3 700.965C532.73 702.645 532.4 702.65 530.935 703.67C529.13 703.975 529.26 703.98 527.53 703.37C525.055 700.765 526.37 699.255 528.425 696.855Z" fill="#FFC576"/>
<path d="M521.95 712.19C523.71 711.805 525.445 712.935 525.81 714.7C526.18 716.465 525.035 718.19 523.27 718.54C521.52 718.89 519.82 717.765 519.46 716.02C519.095 714.275 520.205 712.565 521.95 712.19Z" fill="#FFC576"/>
<path d="M345.808 758.755C348.181 759.315 349.54 759.3 349.942 761.935C349.378 763.875 348.514 764.27 346.855 765.625C345.367 765.465 345.859 765.52 344.429 764.78C342.583 761.995 343.41 760.64 345.808 758.755Z" fill="#FED349"/>
<path d="M497.862 746.19C498.854 745.64 500.07 745.69 501.015 746.31C501.96 746.935 502.485 748.03 502.375 749.16C502.265 750.285 501.54 751.26 500.49 751.69C498.995 752.3 497.28 751.64 496.582 750.18C495.885 748.72 496.446 746.97 497.862 746.19Z" fill="#FFC576"/>
<path d="M352.848 769.39C354.302 769.02 355.797 769.83 356.282 771.25C356.768 772.67 356.083 774.225 354.707 774.82C353.712 775.255 352.557 775.095 351.721 774.4C350.884 773.71 350.507 772.61 350.745 771.55C350.983 770.49 351.796 769.655 352.848 769.39Z" fill="#FFC576"/>
</svg>
